<svg width="125" height="34" viewBox="0 0 125 34" fill="none" xmlns="http://www.w3.org/2000/svg">
<path d="M7.25488 31.5576C7.25488 32.0068 7.15755 32.3213 6.96289 32.501C6.7832 32.6657 6.46875 32.748 6.01953 32.748H1.23535C0.786133 32.748 0.464193 32.6657 0.269531 32.501C0.0898438 32.3213 0 32.0068 0 31.5576V6.55859C0 5.0612 0.134766 3.87826 0.404297 3.00977C0.688802 2.1263 1.22786 1.4974 2.02148 1.12305C2.83008 0.733724 4.00553 0.539062 5.54785 0.539062H11.5C19.3164 0.539062 23.2246 3.54134 23.2246 9.5459C23.2246 11.3727 22.9176 12.8701 22.3037 14.0381C21.6898 15.2061 20.9261 16.1195 20.0127 16.7783C19.0993 17.4222 18.2008 17.9089 17.3174 18.2383V18.3506C18.3206 19.0094 19.2715 19.8779 20.1699 20.9561C21.0833 22.0192 21.9069 23.1797 22.6406 24.4375C23.3743 25.6803 23.9958 26.9157 24.5049 28.1436C25.014 29.3564 25.3659 30.4421 25.5605 31.4004C25.6504 31.8496 25.6504 32.1865 25.5605 32.4111C25.4857 32.6357 25.2311 32.748 24.7969 32.748H19.6084C19.2191 32.748 18.8747 32.6657 18.5752 32.501C18.2907 32.3363 18.0286 31.9544 17.7891 31.3555C16.651 28.4954 15.3408 26.167 13.8584 24.3701C12.376 22.5583 10.946 21.1058 9.56836 20.0127C8.6849 19.3089 8.24316 18.8073 8.24316 18.5078C8.24316 18.2682 8.38542 17.9388 8.66992 17.5195C8.84961 17.265 9.11165 16.958 9.45605 16.5986C9.80046 16.2393 10.0999 15.9697 10.3545 15.79C10.609 15.6104 10.8112 15.498 10.9609 15.4531C11.1257 15.4082 11.3727 15.3857 11.7021 15.3857C12.8102 15.3857 13.7311 15.0039 14.4648 14.2402C15.2135 13.4766 15.5879 12.2712 15.5879 10.624C15.5879 9.06673 15.1911 7.92871 14.3975 7.20996C13.6188 6.47624 12.5407 6.10938 11.1631 6.10938H9.81543C8.82715 6.10938 8.15332 6.31901 7.79395 6.73828C7.43457 7.15755 7.25488 7.8763 7.25488 8.89453V31.5576ZM43.5967 33.3096C40.4821 33.3096 37.7718 32.7106 35.4658 31.5127C33.1598 30.3148 31.3704 28.5104 30.0977 26.0996C28.8398 23.6888 28.2109 20.679 28.2109 17.0703C28.2109 11.3353 29.611 7.06022 32.4111 4.24512C35.2113 1.41504 39.112 0 44.1133 0C48.8001 0 52.5062 1.38509 55.2314 4.15527C57.9567 6.91048 59.3193 10.9984 59.3193 16.4189C59.3193 20.2523 58.6829 23.4193 57.4102 25.9199C56.1374 28.4056 54.3255 30.2624 51.9746 31.4902C49.6237 32.7031 46.8311 33.3096 43.5967 33.3096ZM43.7314 27.2451C46.4268 27.2451 48.4258 26.2793 49.7285 24.3477C51.0312 22.416 51.6826 19.9079 51.6826 16.8232C51.6826 13.2445 51.0687 10.5566 49.8408 8.75977C48.613 6.96289 46.6364 6.06445 43.9111 6.06445C38.5355 6.06445 35.8477 9.60579 35.8477 16.6885C35.8477 19.848 36.4915 22.401 37.7793 24.3477C39.082 26.2793 41.0661 27.2451 43.7314 27.2451ZM70.5049 32.748C68.9626 32.748 67.7871 32.5534 66.9785 32.1641C66.1849 31.7747 65.6458 31.1383 65.3613 30.2549C65.0918 29.3714 64.957 28.196 64.957 26.7285V6.55859C64.957 5.0612 65.0918 3.87826 65.3613 3.00977C65.6458 2.1263 66.1849 1.4974 66.9785 1.12305C67.7871 0.733724 68.9626 0.539062 70.5049 0.539062H76.6816C80.2754 0.539062 83.0381 1.19792 84.9697 2.51562C86.9014 3.83333 87.8672 5.6901 87.8672 8.08594C87.8672 9.26888 87.5977 10.347 87.0586 11.3203C86.5195 12.2936 85.8083 13.1247 84.9248 13.8135C84.0563 14.5023 83.1055 15.0189 82.0723 15.3633V15.4531C83.39 15.6328 84.5804 16.0671 85.6436 16.7559C86.7067 17.4297 87.5527 18.3132 88.1816 19.4062C88.8255 20.4844 89.1475 21.7272 89.1475 23.1348C89.1475 25.2311 88.6383 26.998 87.6201 28.4355C86.6169 29.8581 85.2243 30.9362 83.4424 31.6699C81.6755 32.3887 79.639 32.748 77.333 32.748H70.5049ZM72.2119 24.5947C72.2119 25.598 72.3916 26.3167 72.751 26.751C73.1104 27.1852 73.7842 27.4023 74.7725 27.4023H76.4795C77.9919 27.4023 79.2048 27.013 80.1182 26.2344C81.0465 25.4557 81.5107 24.3926 81.5107 23.0449C81.5107 21.7572 81.0615 20.7464 80.1631 20.0127C79.2646 19.279 78.1042 18.9121 76.6816 18.9121H76.7041C76.3447 18.9121 76.0752 18.8597 75.8955 18.7549C75.5062 18.5003 75.1019 18.2083 74.6826 17.8789C74.2783 17.5345 73.8366 17.1227 73.3574 16.6436C73.2077 16.4489 73.1328 16.3066 73.1328 16.2168C73.1328 16.097 73.2077 15.9548 73.3574 15.79C73.8366 15.3109 74.2783 14.8991 74.6826 14.5547C75.1019 14.2103 75.5062 13.9183 75.8955 13.6787C76.1051 13.5739 76.3747 13.5215 76.7041 13.5215H76.6816C77.5651 13.5215 78.3737 13.1921 79.1074 12.5332C79.8561 11.8743 80.2305 10.8411 80.2305 9.43359C80.2305 8.01107 79.8337 7.06771 79.04 6.60352C78.2464 6.12435 77.2282 5.88477 75.9854 5.88477H74.7725C73.7842 5.88477 73.1104 6.0944 72.751 6.51367C72.3916 6.93294 72.2119 7.65169 72.2119 8.66992V24.5947ZM108.374 33.3096C105.259 33.3096 102.549 32.7106 100.243 31.5127C97.9372 30.3148 96.1478 28.5104 94.875 26.0996C93.6172 23.6888 92.9883 20.679 92.9883 17.0703C92.9883 11.3353 94.3883 7.06022 97.1885 4.24512C99.9886 1.41504 103.889 0 108.891 0C113.577 0 117.284 1.38509 120.009 4.15527C122.734 6.91048 124.097 10.9984 124.097 16.4189C124.097 20.2523 123.46 23.4193 122.188 25.9199C120.915 28.4056 119.103 30.2624 116.752 31.4902C114.401 32.7031 111.608 33.3096 108.374 33.3096ZM108.509 27.2451C111.204 27.2451 113.203 26.2793 114.506 24.3477C115.809 22.416 116.46 19.9079 116.46 16.8232C116.46 13.2445 115.846 10.5566 114.618 8.75977C113.39 6.96289 111.414 6.06445 108.688 6.06445C103.313 6.06445 100.625 9.60579 100.625 16.6885C100.625 19.848 101.269 22.401 102.557 24.3477C103.859 26.2793 105.843 27.2451 108.509 27.2451Z" fill="black"/>
</svg>
