<svg width="150" height="150" viewBox="0 0 150 150" fill="none" xmlns="http://www.w3.org/2000/svg">
<rect width="150" height="150" rx="16" fill="#088DFF"/>
<path d="M20.9814 91.8096C20.9814 92.2588 20.8841 92.5732 20.6895 92.7529C20.5098 92.9176 20.1953 93 19.7461 93H14.9619C14.5127 93 14.1908 92.9176 13.9961 92.7529C13.8164 92.5732 13.7266 92.2588 13.7266 91.8096V66.8105C13.7266 65.3132 13.8613 64.1302 14.1309 63.2617C14.4154 62.3783 14.9544 61.7493 15.748 61.375C16.5566 60.9857 17.7321 60.791 19.2744 60.791H25.2266C33.043 60.791 36.9512 63.7933 36.9512 69.7979C36.9512 71.6247 36.6442 73.1221 36.0303 74.29C35.4163 75.458 34.6527 76.3714 33.7393 77.0303C32.8258 77.6742 31.9274 78.1608 31.0439 78.4902V78.6025C32.0472 79.2614 32.998 80.1299 33.8965 81.208C34.8099 82.2712 35.6335 83.4316 36.3672 84.6895C37.1009 85.9323 37.7223 87.1676 38.2314 88.3955C38.7406 89.6084 39.0924 90.694 39.2871 91.6523C39.377 92.1016 39.377 92.4385 39.2871 92.6631C39.2122 92.8877 38.9577 93 38.5234 93H33.335C32.9456 93 32.6012 92.9176 32.3018 92.7529C32.0173 92.5882 31.7552 92.2064 31.5156 91.6074C30.3776 88.7474 29.0674 86.4189 27.585 84.6221C26.1025 82.8102 24.6725 81.3577 23.2949 80.2646C22.4115 79.5609 21.9697 79.0592 21.9697 78.7598C21.9697 78.5202 22.112 78.1908 22.3965 77.7715C22.5762 77.5169 22.8382 77.21 23.1826 76.8506C23.527 76.4912 23.8265 76.2217 24.0811 76.042C24.3356 75.8623 24.5378 75.75 24.6875 75.7051C24.8522 75.6602 25.0993 75.6377 25.4287 75.6377C26.5368 75.6377 27.4577 75.2559 28.1914 74.4922C28.9401 73.7285 29.3145 72.5231 29.3145 70.876C29.3145 69.3187 28.9176 68.1807 28.124 67.4619C27.3454 66.7282 26.2673 66.3613 24.8896 66.3613H23.542C22.5537 66.3613 21.8799 66.571 21.5205 66.9902C21.1611 67.4095 20.9814 68.1283 20.9814 69.1465V91.8096ZM57.3232 93.5615C54.2087 93.5615 51.4984 92.9626 49.1924 91.7646C46.8864 90.5667 45.097 88.7624 43.8242 86.3516C42.5664 83.9408 41.9375 80.931 41.9375 77.3223C41.9375 71.5872 43.3376 67.3122 46.1377 64.4971C48.9378 61.667 52.8385 60.252 57.8398 60.252C62.5267 60.252 66.2327 61.637 68.958 64.4072C71.6833 67.1624 73.0459 71.2503 73.0459 76.6709C73.0459 80.5042 72.4095 83.6712 71.1367 86.1719C69.8639 88.6576 68.0521 90.5143 65.7012 91.7422C63.3503 92.9551 60.5576 93.5615 57.3232 93.5615ZM57.458 87.4971C60.1533 87.4971 62.1523 86.5312 63.4551 84.5996C64.7578 82.668 65.4092 80.1598 65.4092 77.0752C65.4092 73.4964 64.7952 70.8086 63.5674 69.0117C62.3395 67.2148 60.363 66.3164 57.6377 66.3164C52.262 66.3164 49.5742 69.8577 49.5742 76.9404C49.5742 80.0999 50.2181 82.653 51.5059 84.5996C52.8086 86.5312 54.7926 87.4971 57.458 87.4971ZM84.2314 93C82.6891 93 81.5137 92.8053 80.7051 92.416C79.9115 92.0267 79.3724 91.3903 79.0879 90.5068C78.8184 89.6234 78.6836 88.4479 78.6836 86.9805V66.8105C78.6836 65.3132 78.8184 64.1302 79.0879 63.2617C79.3724 62.3783 79.9115 61.7493 80.7051 61.375C81.5137 60.9857 82.6891 60.791 84.2314 60.791H90.4082C94.002 60.791 96.7646 61.4499 98.6963 62.7676C100.628 64.0853 101.594 65.9421 101.594 68.3379C101.594 69.5208 101.324 70.599 100.785 71.5723C100.246 72.5456 99.5348 73.3766 98.6514 74.0654C97.7829 74.7542 96.832 75.2708 95.7988 75.6152V75.7051C97.1165 75.8848 98.307 76.319 99.3701 77.0078C100.433 77.6816 101.279 78.5651 101.908 79.6582C102.552 80.7363 102.874 81.9792 102.874 83.3867C102.874 85.4831 102.365 87.25 101.347 88.6875C100.343 90.11 98.9508 91.1882 97.1689 91.9219C95.402 92.6406 93.3656 93 91.0596 93H84.2314ZM85.9385 84.8467C85.9385 85.8499 86.1182 86.5687 86.4775 87.0029C86.8369 87.4372 87.5107 87.6543 88.499 87.6543H90.2061C91.7184 87.6543 92.9313 87.265 93.8447 86.4863C94.7731 85.7077 95.2373 84.6445 95.2373 83.2969C95.2373 82.0091 94.7881 80.9984 93.8896 80.2646C92.9912 79.5309 91.8307 79.1641 90.4082 79.1641H90.4307C90.0713 79.1641 89.8018 79.1117 89.6221 79.0068C89.2327 78.7523 88.8285 78.4603 88.4092 78.1309C88.0049 77.7865 87.5632 77.3747 87.084 76.8955C86.9342 76.7008 86.8594 76.5586 86.8594 76.4688C86.8594 76.349 86.9342 76.2067 87.084 76.042C87.5632 75.5628 88.0049 75.151 88.4092 74.8066C88.8285 74.4622 89.2327 74.1702 89.6221 73.9307C89.8317 73.8258 90.1012 73.7734 90.4307 73.7734H90.4082C91.2917 73.7734 92.1003 73.444 92.834 72.7852C93.5827 72.1263 93.957 71.0931 93.957 69.6855C93.957 68.263 93.5602 67.3197 92.7666 66.8555C91.973 66.3763 90.9548 66.1367 89.7119 66.1367H88.499C87.5107 66.1367 86.8369 66.3464 86.4775 66.7656C86.1182 67.1849 85.9385 67.9036 85.9385 68.9219V84.8467ZM122.101 93.5615C118.986 93.5615 116.276 92.9626 113.97 91.7646C111.664 90.5667 109.874 88.7624 108.602 86.3516C107.344 83.9408 106.715 80.931 106.715 77.3223C106.715 71.5872 108.115 67.3122 110.915 64.4971C113.715 61.667 117.616 60.252 122.617 60.252C127.304 60.252 131.01 61.637 133.735 64.4072C136.461 67.1624 137.823 71.2503 137.823 76.6709C137.823 80.5042 137.187 83.6712 135.914 86.1719C134.641 88.6576 132.829 90.5143 130.479 91.7422C128.128 92.9551 125.335 93.5615 122.101 93.5615ZM122.235 87.4971C124.931 87.4971 126.93 86.5312 128.232 84.5996C129.535 82.668 130.187 80.1598 130.187 77.0752C130.187 73.4964 129.573 70.8086 128.345 69.0117C127.117 67.2148 125.14 66.3164 122.415 66.3164C117.039 66.3164 114.352 69.8577 114.352 76.9404C114.352 80.0999 114.995 82.653 116.283 84.5996C117.586 86.5312 119.57 87.4971 122.235 87.4971Z" fill="white"/>
</svg>
